<svg width="633" height="117" viewBox="0 0 633 117" fill="none" xmlns="http://www.w3.org/2000/svg">
<path d="M41.76 77.752C41.76 82.552 39.84 86.136 36 88.504C32.224 90.808 27.296 91.96 21.216 91.96C18.08 91.96 14.912 91.64 11.712 91C8.576 90.296 5.568 89.208 2.688 87.736L4.416 75.64L14.016 76.696V82.072C15.168 82.456 16.384 82.712 17.664 82.84C18.944 82.904 19.904 82.936 20.544 82.936C22.912 82.936 24.96 82.552 26.688 81.784C28.416 81.016 29.28 79.864 29.28 78.328C29.28 76.472 27.968 75.256 25.344 74.68C22.72 74.104 19.68 73.528 16.224 72.952C12.768 72.376 9.728 71.192 7.104 69.4C4.48 67.608 3.168 64.568 3.168 60.28C3.168 54.968 5.216 51.416 9.312 49.624C13.472 47.768 17.76 46.84 22.176 46.84C27.936 46.84 33.344 48.152 38.4 50.776L39.456 61.816L29.856 62.872L29.088 56.824C26.976 56.12 24.704 55.768 22.272 55.768C20.672 55.768 19.296 56.12 18.144 56.824C17.056 57.464 16.512 58.488 16.512 59.896C16.512 61.752 17.76 63 20.256 63.64C22.816 64.216 25.76 64.792 29.088 65.368C32.48 65.944 35.424 67.128 37.92 68.92C40.48 70.648 41.76 73.592 41.76 77.752ZM95.2305 77.368C94.9105 81.208 93.0225 84.6 89.5665 87.544C86.1105 90.488 81.2785 91.96 75.0705 91.96C68.6065 91.96 63.2625 90.136 59.0385 86.488C54.8785 82.84 52.7985 77.4 52.7985 70.168C52.7985 63.512 54.6865 57.976 58.4625 53.56C62.3025 49.08 67.6465 46.84 74.4945 46.84C80.5105 46.84 85.3745 48.568 89.0865 52.024C92.8625 55.48 94.7825 60.024 94.8465 65.656C94.8465 67.768 94.6225 69.848 94.1745 71.896H65.7585C66.4625 78.744 69.8545 82.168 75.9345 82.168C79.2625 82.168 81.5025 81.368 82.6545 79.768C83.8705 78.168 84.6065 76.728 84.8625 75.448L95.2305 77.368ZM82.0785 64.696C82.3345 62.52 81.8545 60.472 80.6385 58.552C79.4865 56.632 77.4385 55.672 74.4945 55.672C71.9345 55.672 69.9505 56.504 68.5425 58.168C67.1345 59.832 66.2385 62.008 65.8545 64.696H82.0785ZM157.189 57.112H151.429V88.792C151.429 95.704 149.477 101.336 145.573 105.688C141.669 110.104 135.653 112.312 127.525 112.312C123.045 112.312 118.757 111.384 114.661 109.528C110.565 107.736 107.589 104.344 105.733 99.352L115.237 93.976C118.309 99.672 122.437 102.52 127.621 102.52C130.949 102.52 133.669 101.304 135.781 98.872C137.957 96.504 139.045 93.144 139.045 88.792V83.128C137.893 85.304 136.197 87.16 133.957 88.696C131.717 90.232 128.677 91 124.837 91C119.781 91 115.365 89.24 111.589 85.72C107.813 82.2 105.925 77.016 105.925 70.168C105.925 63.704 107.653 58.2 111.109 53.656C114.565 49.112 119.333 46.84 125.413 46.84C128.805 46.84 131.621 47.544 133.861 48.952C136.101 50.36 137.829 52.184 139.045 54.424V47.704H157.189V57.112ZM139.045 69.112V68.056C139.045 64.472 138.117 61.688 136.261 59.704C134.469 57.656 132.165 56.632 129.349 56.632C126.597 56.632 124.293 57.656 122.437 59.704C120.645 61.752 119.749 64.984 119.749 69.4C119.749 73.56 120.549 76.568 122.149 78.424C123.813 80.28 125.957 81.208 128.581 81.208C131.973 81.208 134.565 79.992 136.357 77.56C138.149 75.128 139.045 72.312 139.045 69.112ZM220.007 91H201.383V84.376C198.503 89.368 193.863 91.864 187.463 91.864C183.367 91.864 179.815 90.648 176.807 88.216C173.799 85.784 172.295 82.008 172.295 76.888V57.016H166.535V47.704H184.679V72.088C184.679 75.864 185.287 78.552 186.503 80.152C187.783 81.688 189.639 82.456 192.071 82.456C195.015 82.456 197.287 81.496 198.887 79.576C200.551 77.656 201.383 75.192 201.383 72.184V57.016H194.375V47.704H213.767V81.688H220.007V91ZM258.212 47.128C259.428 47.128 260.772 47.32 262.244 47.704C263.78 48.024 265.284 48.632 266.756 49.528L268.676 64.696L259.268 65.752L257.636 58.36C256.356 57.592 255.236 57.208 254.276 57.208C252.868 57.208 251.62 57.752 250.532 58.84C249.508 59.928 248.996 61.528 248.996 63.64V81.688H256.676V91H230.852V81.688H236.612V57.112H230.372V47.704H248.036V55.96C248.74 53.464 249.86 51.384 251.396 49.72C252.996 47.992 255.268 47.128 258.212 47.128ZM285.515 40.024V27.16H297.899V40.024H285.515ZM304.139 91H280.235V81.688H285.995V57.112H279.755V47.704H298.379V81.688H304.139V91ZM363.93 91H349.818V82.36C348.41 84.92 346.49 87.16 344.058 89.08C341.626 91 338.458 91.96 334.554 91.96C329.05 91.96 324.602 90.104 321.21 86.392C317.882 82.616 316.218 77.4 316.218 70.744C316.218 65.048 317.69 59.736 320.634 54.808C323.578 49.88 328.538 47.416 335.514 47.416C342.17 47.416 346.938 50.008 349.818 55.192V30.424H339.45V24.952H356.538V85.528H363.93V91ZM349.818 72.088V65.272C349.69 61.688 348.378 58.776 345.882 56.536C343.386 54.296 340.442 53.176 337.05 53.176C332.314 53.176 328.826 54.904 326.586 58.36C324.41 61.816 323.322 65.784 323.322 70.264C323.322 75.512 324.538 79.48 326.97 82.168C329.466 84.856 332.57 86.2 336.282 86.2C340.122 86.2 343.29 84.664 345.786 81.592C348.346 78.456 349.69 75.288 349.818 72.088ZM379.754 51.544C381.994 50.072 384.362 49.016 386.858 48.376C389.354 47.736 392.01 47.416 394.826 47.416C405.002 47.416 410.09 52.184 410.09 61.72V82.072C410.09 85.144 411.306 86.68 413.738 86.68C414.826 86.68 415.786 86.488 416.618 86.104L416.714 90.52C414.986 91.48 413.13 91.96 411.146 91.96C406.09 91.96 403.498 89.08 403.37 83.32V83.128C402.026 85.432 400.106 87.48 397.61 89.272C395.178 91.064 392.234 91.96 388.778 91.96C385.962 91.96 383.082 91.096 380.138 89.368C377.258 87.64 375.818 84.504 375.818 79.96C375.818 74.584 377.93 71.064 382.154 69.4C386.442 67.672 390.986 66.808 395.786 66.808C397.066 66.808 398.346 66.84 399.626 66.904C400.97 66.968 402.218 67.064 403.37 67.192V63.352C403.37 60.28 402.698 57.784 401.354 55.864C400.074 53.944 397.514 52.984 393.674 52.984C390.538 52.984 387.786 53.56 385.418 54.712L383.786 62.104L378.218 61.432L379.754 51.544ZM403.37 74.968V71.704C402.154 71.64 400.874 71.544 399.53 71.416C398.186 71.288 396.81 71.224 395.402 71.224C392.202 71.224 389.29 71.736 386.666 72.76C384.106 73.72 382.826 75.864 382.826 79.192C382.826 81.944 383.69 83.832 385.418 84.856C387.146 85.88 388.938 86.392 390.794 86.392C393.738 86.392 396.49 85.368 399.05 83.32C401.674 81.272 403.114 78.488 403.37 74.968ZM476.464 91H462.352V82.36C460.944 84.92 459.024 87.16 456.592 89.08C454.16 91 450.992 91.96 447.088 91.96C441.584 91.96 437.136 90.104 433.744 86.392C430.416 82.616 428.752 77.4 428.752 70.744C428.752 65.048 430.224 59.736 433.168 54.808C436.112 49.88 441.072 47.416 448.048 47.416C454.704 47.416 459.472 50.008 462.352 55.192V30.424H451.984V24.952H469.072V85.528H476.464V91ZM462.352 72.088V65.272C462.224 61.688 460.912 58.776 458.416 56.536C455.92 54.296 452.976 53.176 449.584 53.176C444.848 53.176 441.36 54.904 439.12 58.36C436.944 61.816 435.856 65.784 435.856 70.264C435.856 75.512 437.072 79.48 439.504 82.168C442 84.856 445.104 86.2 448.816 86.2C452.656 86.2 455.824 84.664 458.32 81.592C460.88 78.456 462.224 75.288 462.352 72.088Z" fill="black"/>
<path d="M628.304 80.616C628.304 84.776 626.544 88.04 623.024 90.408C619.568 92.776 615.28 93.96 610.16 93.96C607.152 93.96 604.144 93.576 601.136 92.808C598.192 91.976 595.792 90.952 593.936 89.736L595.28 80.04L600.656 80.616L600.368 86.28C603.312 87.688 606.48 88.392 609.872 88.392C612.88 88.392 615.536 87.816 617.84 86.664C620.208 85.448 621.392 83.624 621.392 81.192C621.392 78.824 620.496 77.16 618.704 76.2C616.912 75.24 614.672 74.536 611.984 74.088C609.36 73.64 606.704 73.096 604.016 72.456C601.328 71.816 599.088 70.728 597.296 69.192C595.504 67.592 594.608 65.128 594.608 61.8C594.608 57.256 596.272 54.056 599.6 52.2C602.928 50.344 606.544 49.416 610.448 49.416C613.392 49.416 616.144 49.8 618.704 50.568C621.328 51.336 623.536 52.264 625.328 53.352L626.384 63.336L620.816 64.008L619.76 57.096C617.072 55.688 614.16 54.984 611.024 54.984C608.336 54.984 606.128 55.496 604.4 56.52C602.672 57.544 601.808 59.144 601.808 61.32C601.808 63.56 602.704 65.16 604.496 66.12C606.288 67.016 608.496 67.688 611.12 68.136C613.744 68.52 616.368 69.032 618.992 69.672C621.616 70.312 623.824 71.464 625.616 73.128C627.408 74.728 628.304 77.224 628.304 80.616Z" fill="black"/>
<rect x="491" y="50" width="86" height="43" fill="#99D98C"/>
</svg>
